<?xml version="1.0" encoding="UTF-8"?>
<svg xmlns="http://www.w3.org/2000/svg" xmlns:xlink="http://www.w3.org/1999/xlink" width="504pt" height="324pt" viewBox="0 0 504 324">
<defs>
<g>
<g id="glyph-0-0">
<path d="M 3.390625 0 L 2.59375 0 L 2.59375 -5.109375 C 2.394531 -4.921875 2.140625 -4.734375 1.828125 -4.546875 C 1.515625 -4.367188 1.234375 -4.234375 0.984375 -4.140625 L 0.984375 -4.90625 C 1.429688 -5.113281 1.820312 -5.367188 2.15625 -5.671875 C 2.5 -5.972656 2.738281 -6.265625 2.875 -6.546875 L 3.390625 -6.546875 Z M 3.390625 0 "/>
</g>
<g id="glyph-0-1">
<path d="M 0.828125 0 L 0.828125 -0.90625 L 1.734375 -0.90625 L 1.734375 0 Z M 0.828125 0 "/>
</g>
<g id="glyph-0-2">
<path d="M 0.375 -3.21875 C 0.375 -3.988281 0.453125 -4.609375 0.609375 -5.078125 C 0.773438 -5.546875 1.015625 -5.90625 1.328125 -6.15625 C 1.640625 -6.414062 2.03125 -6.546875 2.5 -6.546875 C 2.851562 -6.546875 3.160156 -6.472656 3.421875 -6.328125 C 3.691406 -6.191406 3.910156 -5.988281 4.078125 -5.71875 C 4.253906 -5.457031 4.390625 -5.132812 4.484375 -4.75 C 4.578125 -4.375 4.625 -3.863281 4.625 -3.21875 C 4.625 -2.445312 4.546875 -1.828125 4.390625 -1.359375 C 4.234375 -0.890625 4 -0.523438 3.6875 -0.265625 C 3.375 -0.015625 2.976562 0.109375 2.5 0.109375 C 1.875 0.109375 1.378906 -0.113281 1.015625 -0.5625 C 0.585938 -1.101562 0.375 -1.988281 0.375 -3.21875 Z M 1.203125 -3.21875 C 1.203125 -2.144531 1.328125 -1.429688 1.578125 -1.078125 C 1.828125 -0.722656 2.132812 -0.546875 2.5 -0.546875 C 2.875 -0.546875 3.1875 -0.722656 3.4375 -1.078125 C 3.6875 -1.429688 3.8125 -2.144531 3.8125 -3.21875 C 3.8125 -4.289062 3.6875 -5.003906 3.4375 -5.359375 C 3.1875 -5.710938 2.875 -5.890625 2.5 -5.890625 C 2.125 -5.890625 1.828125 -5.734375 1.609375 -5.421875 C 1.335938 -5.023438 1.203125 -4.289062 1.203125 -3.21875 Z M 1.203125 -3.21875 "/>
</g>
<g id="glyph-0-3">
<path d="M 4.578125 -0.765625 L 4.578125 0 L 0.28125 0 C 0.269531 -0.195312 0.300781 -0.382812 0.375 -0.5625 C 0.476562 -0.851562 0.648438 -1.140625 0.890625 -1.421875 C 1.140625 -1.703125 1.488281 -2.03125 1.9375 -2.40625 C 2.644531 -2.988281 3.125 -3.445312 3.375 -3.78125 C 3.625 -4.125 3.75 -4.445312 3.75 -4.75 C 3.75 -5.070312 3.632812 -5.34375 3.40625 -5.5625 C 3.1875 -5.78125 2.894531 -5.890625 2.53125 -5.890625 C 2.144531 -5.890625 1.832031 -5.769531 1.59375 -5.53125 C 1.363281 -5.300781 1.25 -4.984375 1.25 -4.578125 L 0.421875 -4.65625 C 0.484375 -5.269531 0.695312 -5.738281 1.0625 -6.0625 C 1.425781 -6.382812 1.921875 -6.546875 2.546875 -6.546875 C 3.171875 -6.546875 3.664062 -6.367188 4.03125 -6.015625 C 4.394531 -5.671875 4.578125 -5.242188 4.578125 -4.734375 C 4.578125 -4.472656 4.519531 -4.21875 4.40625 -3.96875 C 4.300781 -3.71875 4.125 -3.453125 3.875 -3.171875 C 3.632812 -2.890625 3.226562 -2.507812 2.65625 -2.03125 C 2.175781 -1.625 1.863281 -1.347656 1.71875 -1.203125 C 1.582031 -1.054688 1.472656 -0.910156 1.390625 -0.765625 Z M 4.578125 -0.765625 "/>
</g>
<g id="glyph-0-4">
<path d="M 1.609375 -3.53125 C 1.273438 -3.65625 1.023438 -3.828125 0.859375 -4.046875 C 0.703125 -4.273438 0.625 -4.546875 0.625 -4.859375 C 0.625 -5.335938 0.796875 -5.738281 1.140625 -6.0625 C 1.484375 -6.382812 1.9375 -6.546875 2.5 -6.546875 C 3.070312 -6.546875 3.53125 -6.378906 3.875 -6.046875 C 4.226562 -5.722656 4.40625 -5.320312 4.40625 -4.84375 C 4.40625 -4.539062 4.320312 -4.273438 4.15625 -4.046875 C 4 -3.828125 3.757812 -3.65625 3.4375 -3.53125 C 3.832031 -3.40625 4.132812 -3.195312 4.34375 -2.90625 C 4.5625 -2.613281 4.671875 -2.265625 4.671875 -1.859375 C 4.671875 -1.304688 4.472656 -0.835938 4.078125 -0.453125 C 3.679688 -0.078125 3.160156 0.109375 2.515625 0.109375 C 1.867188 0.109375 1.347656 -0.078125 0.953125 -0.453125 C 0.566406 -0.835938 0.375 -1.316406 0.375 -1.890625 C 0.375 -2.304688 0.476562 -2.65625 0.6875 -2.9375 C 0.90625 -3.226562 1.210938 -3.425781 1.609375 -3.53125 Z M 1.453125 -4.890625 C 1.453125 -4.585938 1.550781 -4.335938 1.75 -4.140625 C 1.945312 -3.941406 2.203125 -3.84375 2.515625 -3.84375 C 2.828125 -3.84375 3.082031 -3.9375 3.28125 -4.125 C 3.476562 -4.320312 3.578125 -4.5625 3.578125 -4.84375 C 3.578125 -5.132812 3.472656 -5.378906 3.265625 -5.578125 C 3.066406 -5.785156 2.816406 -5.890625 2.515625 -5.890625 C 2.210938 -5.890625 1.957031 -5.789062 1.75 -5.59375 C 1.550781 -5.394531 1.453125 -5.160156 1.453125 -4.890625 Z M 1.1875 -1.875 C 1.1875 -1.644531 1.238281 -1.425781 1.34375 -1.21875 C 1.457031 -1.007812 1.617188 -0.84375 1.828125 -0.71875 C 2.046875 -0.601562 2.28125 -0.546875 2.53125 -0.546875 C 2.90625 -0.546875 3.21875 -0.664062 3.46875 -0.90625 C 3.71875 -1.15625 3.84375 -1.472656 3.84375 -1.859375 C 3.84375 -2.242188 3.710938 -2.5625 3.453125 -2.8125 C 3.203125 -3.0625 2.882812 -3.1875 2.5 -3.1875 C 2.125 -3.1875 1.8125 -3.0625 1.5625 -2.8125 C 1.3125 -2.5625 1.1875 -2.25 1.1875 -1.875 Z M 1.1875 -1.875 "/>
</g>
<g id="glyph-0-5">
<path d="M 4.53125 -4.921875 L 3.734375 -4.859375 C 3.660156 -5.171875 3.5625 -5.398438 3.4375 -5.546875 C 3.21875 -5.773438 2.953125 -5.890625 2.640625 -5.890625 C 2.378906 -5.890625 2.15625 -5.816406 1.96875 -5.671875 C 1.707031 -5.492188 1.503906 -5.226562 1.359375 -4.875 C 1.210938 -4.519531 1.140625 -4.015625 1.140625 -3.359375 C 1.328125 -3.648438 1.5625 -3.867188 1.84375 -4.015625 C 2.125 -4.160156 2.414062 -4.234375 2.71875 -4.234375 C 3.25 -4.234375 3.703125 -4.035156 4.078125 -3.640625 C 4.453125 -3.242188 4.640625 -2.738281 4.640625 -2.125 C 4.640625 -1.707031 4.550781 -1.320312 4.375 -0.96875 C 4.207031 -0.625 3.96875 -0.359375 3.65625 -0.171875 C 3.34375 0.015625 2.992188 0.109375 2.609375 0.109375 C 1.941406 0.109375 1.394531 -0.132812 0.96875 -0.625 C 0.550781 -1.113281 0.34375 -1.921875 0.34375 -3.046875 C 0.34375 -4.304688 0.578125 -5.222656 1.046875 -5.796875 C 1.453125 -6.296875 2 -6.546875 2.6875 -6.546875 C 3.195312 -6.546875 3.613281 -6.398438 3.9375 -6.109375 C 4.269531 -5.828125 4.46875 -5.429688 4.53125 -4.921875 Z M 1.265625 -2.109375 C 1.265625 -1.835938 1.320312 -1.570312 1.4375 -1.3125 C 1.550781 -1.0625 1.710938 -0.867188 1.921875 -0.734375 C 2.140625 -0.609375 2.363281 -0.546875 2.59375 -0.546875 C 2.925781 -0.546875 3.210938 -0.679688 3.453125 -0.953125 C 3.703125 -1.222656 3.828125 -1.59375 3.828125 -2.0625 C 3.828125 -2.519531 3.707031 -2.875 3.46875 -3.125 C 3.226562 -3.382812 2.925781 -3.515625 2.5625 -3.515625 C 2.195312 -3.515625 1.890625 -3.382812 1.640625 -3.125 C 1.390625 -2.875 1.265625 -2.535156 1.265625 -2.109375 Z M 1.265625 -2.109375 "/>
</g>
<g id="glyph-0-6">
<path d="M 0.375 -1.71875 L 1.1875 -1.828125 C 1.28125 -1.367188 1.4375 -1.039062 1.65625 -0.84375 C 1.875 -0.644531 2.140625 -0.546875 2.453125 -0.546875 C 2.835938 -0.546875 3.15625 -0.675781 3.40625 -0.9375 C 3.664062 -1.195312 3.796875 -1.519531 3.796875 -1.90625 C 3.796875 -2.269531 3.675781 -2.570312 3.4375 -2.8125 C 3.195312 -3.050781 2.894531 -3.171875 2.53125 -3.171875 C 2.375 -3.171875 2.1875 -3.144531 1.96875 -3.09375 L 2.046875 -3.796875 C 2.097656 -3.785156 2.140625 -3.78125 2.171875 -3.78125 C 2.515625 -3.78125 2.820312 -3.867188 3.09375 -4.046875 C 3.375 -4.222656 3.515625 -4.5 3.515625 -4.875 C 3.515625 -5.164062 3.410156 -5.40625 3.203125 -5.59375 C 3.003906 -5.789062 2.75 -5.890625 2.4375 -5.890625 C 2.125 -5.890625 1.863281 -5.789062 1.65625 -5.59375 C 1.457031 -5.394531 1.328125 -5.101562 1.265625 -4.71875 L 0.46875 -4.859375 C 0.5625 -5.390625 0.78125 -5.800781 1.125 -6.09375 C 1.476562 -6.394531 1.910156 -6.546875 2.421875 -6.546875 C 2.773438 -6.546875 3.101562 -6.46875 3.40625 -6.3125 C 3.707031 -6.164062 3.9375 -5.957031 4.09375 -5.6875 C 4.25 -5.425781 4.328125 -5.148438 4.328125 -4.859375 C 4.328125 -4.578125 4.25 -4.316406 4.09375 -4.078125 C 3.945312 -3.847656 3.726562 -3.664062 3.4375 -3.53125 C 3.820312 -3.4375 4.117188 -3.25 4.328125 -2.96875 C 4.546875 -2.695312 4.65625 -2.347656 4.65625 -1.921875 C 4.65625 -1.359375 4.445312 -0.878906 4.03125 -0.484375 C 3.613281 -0.0859375 3.085938 0.109375 2.453125 0.109375 C 1.878906 0.109375 1.40625 -0.0546875 1.03125 -0.390625 C 0.65625 -0.734375 0.4375 -1.175781 0.375 -1.71875 Z M 0.375 -1.71875 "/>
</g>
<g id="glyph-0-7">
<path d="M 2.9375 0 L 2.9375 -1.5625 L 0.109375 -1.5625 L 0.109375 -2.296875 L 3.09375 -6.515625 L 3.75 -6.515625 L 3.75 -2.296875 L 4.625 -2.296875 L 4.625 -1.5625 L 3.75 -1.5625 L 3.75 0 Z M 2.9375 -2.296875 L 2.9375 -5.234375 L 0.90625 -2.296875 Z M 2.9375 -2.296875 "/>
</g>
<g id="glyph-1-0">
<path d="M 0.671875 0 L 0.671875 -6.296875 L 2.84375 -6.296875 C 3.332031 -6.296875 3.707031 -6.265625 3.96875 -6.203125 C 4.332031 -6.117188 4.640625 -5.96875 4.890625 -5.75 C 5.222656 -5.46875 5.472656 -5.109375 5.640625 -4.671875 C 5.804688 -4.242188 5.890625 -3.75 5.890625 -3.1875 C 5.890625 -2.707031 5.832031 -2.28125 5.71875 -1.90625 C 5.601562 -1.539062 5.457031 -1.234375 5.28125 -0.984375 C 5.113281 -0.742188 4.925781 -0.554688 4.71875 -0.421875 C 4.507812 -0.285156 4.253906 -0.179688 3.953125 -0.109375 C 3.660156 -0.0351562 3.328125 0 2.953125 0 Z M 1.515625 -0.75 L 2.859375 -0.75 C 3.273438 -0.75 3.597656 -0.785156 3.828125 -0.859375 C 4.066406 -0.929688 4.257812 -1.039062 4.40625 -1.1875 C 4.59375 -1.382812 4.742188 -1.648438 4.859375 -1.984375 C 4.972656 -2.316406 5.03125 -2.722656 5.03125 -3.203125 C 5.03125 -3.859375 4.921875 -4.363281 4.703125 -4.71875 C 4.484375 -5.070312 4.21875 -5.304688 3.90625 -5.421875 C 3.6875 -5.503906 3.328125 -5.546875 2.828125 -5.546875 L 1.515625 -5.546875 Z M 1.515625 -0.75 "/>
</g>
<g id="glyph-1-1">
<path d="M 3.5625 -0.5625 C 3.269531 -0.320312 2.988281 -0.148438 2.71875 -0.046875 C 2.457031 0.0546875 2.175781 0.109375 1.875 0.109375 C 1.375 0.109375 0.988281 -0.0078125 0.71875 -0.25 C 0.445312 -0.5 0.3125 -0.816406 0.3125 -1.203125 C 0.3125 -1.421875 0.363281 -1.625 0.46875 -1.8125 C 0.570312 -2 0.703125 -2.144531 0.859375 -2.25 C 1.023438 -2.363281 1.210938 -2.453125 1.421875 -2.515625 C 1.578125 -2.554688 1.804688 -2.59375 2.109375 -2.625 C 2.734375 -2.695312 3.191406 -2.785156 3.484375 -2.890625 C 3.492188 -2.992188 3.5 -3.0625 3.5 -3.09375 C 3.5 -3.40625 3.425781 -3.628906 3.28125 -3.765625 C 3.082031 -3.941406 2.785156 -4.03125 2.390625 -4.03125 C 2.023438 -4.03125 1.753906 -3.960938 1.578125 -3.828125 C 1.410156 -3.703125 1.285156 -3.476562 1.203125 -3.15625 L 0.453125 -3.265625 C 0.515625 -3.585938 0.625 -3.847656 0.78125 -4.046875 C 0.945312 -4.242188 1.175781 -4.394531 1.46875 -4.5 C 1.769531 -4.613281 2.117188 -4.671875 2.515625 -4.671875 C 2.898438 -4.671875 3.210938 -4.625 3.453125 -4.53125 C 3.703125 -4.4375 3.882812 -4.316406 4 -4.171875 C 4.113281 -4.035156 4.191406 -3.863281 4.234375 -3.65625 C 4.265625 -3.519531 4.28125 -3.28125 4.28125 -2.9375 L 4.28125 -1.90625 C 4.28125 -1.1875 4.296875 -0.734375 4.328125 -0.546875 C 4.359375 -0.359375 4.421875 -0.175781 4.515625 0 L 3.71875 0 C 3.632812 -0.15625 3.582031 -0.34375 3.5625 -0.5625 Z M 3.484375 -2.296875 C 3.210938 -2.179688 2.796875 -2.082031 2.234375 -2 C 1.910156 -1.945312 1.679688 -1.890625 1.546875 -1.828125 C 1.421875 -1.773438 1.320312 -1.691406 1.25 -1.578125 C 1.175781 -1.472656 1.140625 -1.351562 1.140625 -1.21875 C 1.140625 -1.019531 1.21875 -0.847656 1.375 -0.703125 C 1.53125 -0.566406 1.757812 -0.5 2.0625 -0.5 C 2.363281 -0.5 2.628906 -0.5625 2.859375 -0.6875 C 3.085938 -0.820312 3.257812 -1.003906 3.375 -1.234375 C 3.445312 -1.410156 3.484375 -1.664062 3.484375 -2 Z M 3.484375 -2.296875 "/>
</g>
<g id="glyph-1-2">
<path d="M 2.265625 -0.6875 L 2.375 -0.015625 C 2.15625 0.0351562 1.960938 0.0625 1.796875 0.0625 C 1.515625 0.0625 1.296875 0.0195312 1.140625 -0.0625 C 0.984375 -0.15625 0.875 -0.273438 0.8125 -0.421875 C 0.75 -0.566406 0.71875 -0.867188 0.71875 -1.328125 L 0.71875 -3.953125 L 0.15625 -3.953125 L 0.15625 -4.5625 L 0.71875 -4.5625 L 0.71875 -5.6875 L 1.484375 -6.15625 L 1.484375 -4.5625 L 2.265625 -4.5625 L 2.265625 -3.953125 L 1.484375 -3.953125 L 1.484375 -1.296875 C 1.484375 -1.078125 1.5 -0.929688 1.53125 -0.859375 C 1.5625 -0.796875 1.601562 -0.742188 1.65625 -0.703125 C 1.71875 -0.671875 1.804688 -0.65625 1.921875 -0.65625 C 2.015625 -0.65625 2.128906 -0.664062 2.265625 -0.6875 Z M 2.265625 -0.6875 "/>
</g>
<g id="glyph-1-3">
<path d="M 0.265625 -1.359375 L 1.03125 -1.484375 C 1.070312 -1.171875 1.191406 -0.929688 1.390625 -0.765625 C 1.585938 -0.609375 1.863281 -0.53125 2.21875 -0.53125 C 2.570312 -0.53125 2.832031 -0.601562 3 -0.75 C 3.175781 -0.894531 3.265625 -1.066406 3.265625 -1.265625 C 3.265625 -1.429688 3.1875 -1.566406 3.03125 -1.671875 C 2.925781 -1.742188 2.664062 -1.832031 2.25 -1.9375 C 1.675781 -2.070312 1.28125 -2.191406 1.0625 -2.296875 C 0.84375 -2.410156 0.675781 -2.554688 0.5625 -2.734375 C 0.457031 -2.921875 0.40625 -3.125 0.40625 -3.34375 C 0.40625 -3.550781 0.445312 -3.738281 0.53125 -3.90625 C 0.625 -4.082031 0.753906 -4.226562 0.921875 -4.34375 C 1.035156 -4.4375 1.195312 -4.515625 1.40625 -4.578125 C 1.613281 -4.640625 1.835938 -4.671875 2.078125 -4.671875 C 2.429688 -4.671875 2.742188 -4.617188 3.015625 -4.515625 C 3.285156 -4.410156 3.484375 -4.269531 3.609375 -4.09375 C 3.742188 -3.914062 3.835938 -3.679688 3.890625 -3.390625 L 3.125 -3.28125 C 3.09375 -3.519531 2.992188 -3.703125 2.828125 -3.828125 C 2.660156 -3.960938 2.429688 -4.03125 2.140625 -4.03125 C 1.785156 -4.03125 1.53125 -3.96875 1.375 -3.84375 C 1.21875 -3.726562 1.140625 -3.59375 1.140625 -3.4375 C 1.140625 -3.34375 1.171875 -3.253906 1.234375 -3.171875 C 1.296875 -3.085938 1.394531 -3.019531 1.53125 -2.96875 C 1.613281 -2.9375 1.84375 -2.867188 2.21875 -2.765625 C 2.769531 -2.617188 3.148438 -2.5 3.359375 -2.40625 C 3.578125 -2.3125 3.75 -2.175781 3.875 -2 C 4 -1.820312 4.0625 -1.601562 4.0625 -1.34375 C 4.0625 -1.082031 3.984375 -0.835938 3.828125 -0.609375 C 3.679688 -0.378906 3.460938 -0.203125 3.171875 -0.078125 C 2.890625 0.046875 2.570312 0.109375 2.21875 0.109375 C 1.625 0.109375 1.171875 -0.015625 0.859375 -0.265625 C 0.554688 -0.515625 0.359375 -0.878906 0.265625 -1.359375 Z M 0.265625 -1.359375 "/>
</g>
<g id="glyph-1-4">
<path d="M 3.703125 -1.46875 L 4.5 -1.375 C 4.375 -0.90625 4.140625 -0.539062 3.796875 -0.28125 C 3.460938 -0.0195312 3.03125 0.109375 2.5 0.109375 C 1.832031 0.109375 1.300781 -0.09375 0.90625 -0.5 C 0.519531 -0.914062 0.328125 -1.492188 0.328125 -2.234375 C 0.328125 -3.003906 0.519531 -3.601562 0.90625 -4.03125 C 1.300781 -4.457031 1.816406 -4.671875 2.453125 -4.671875 C 3.066406 -4.671875 3.566406 -4.460938 3.953125 -4.046875 C 4.335938 -3.628906 4.53125 -3.046875 4.53125 -2.296875 C 4.53125 -2.242188 4.523438 -2.171875 4.515625 -2.078125 L 1.125 -2.078125 C 1.144531 -1.578125 1.28125 -1.191406 1.53125 -0.921875 C 1.789062 -0.660156 2.113281 -0.53125 2.5 -0.53125 C 2.78125 -0.53125 3.019531 -0.601562 3.21875 -0.75 C 3.425781 -0.90625 3.585938 -1.144531 3.703125 -1.46875 Z M 1.15625 -2.71875 L 3.71875 -2.71875 C 3.675781 -3.101562 3.578125 -3.390625 3.421875 -3.578125 C 3.171875 -3.878906 2.851562 -4.03125 2.46875 -4.03125 C 2.101562 -4.03125 1.800781 -3.910156 1.5625 -3.671875 C 1.320312 -3.429688 1.1875 -3.113281 1.15625 -2.71875 Z M 1.15625 -2.71875 "/>
</g>
<g id="glyph-1-5">
</g>
<g id="glyph-1-6">
<path d="M 2.0625 1.84375 C 1.632812 1.3125 1.269531 0.6875 0.96875 -0.03125 C 0.675781 -0.757812 0.53125 -1.507812 0.53125 -2.28125 C 0.53125 -2.957031 0.640625 -3.609375 0.859375 -4.234375 C 1.117188 -4.960938 1.519531 -5.6875 2.0625 -6.40625 L 2.609375 -6.40625 C 2.265625 -5.8125 2.035156 -5.382812 1.921875 -5.125 C 1.742188 -4.726562 1.609375 -4.316406 1.515625 -3.890625 C 1.390625 -3.359375 1.328125 -2.820312 1.328125 -2.28125 C 1.328125 -0.894531 1.753906 0.476562 2.609375 1.84375 Z M 2.0625 1.84375 "/>
</g>
<g id="glyph-1-7">
<path d="M 4.421875 -0.75 L 4.421875 0 L 0.265625 0 C 0.253906 -0.1875 0.285156 -0.363281 0.359375 -0.53125 C 0.460938 -0.820312 0.628906 -1.101562 0.859375 -1.375 C 1.097656 -1.644531 1.4375 -1.960938 1.875 -2.328125 C 2.5625 -2.890625 3.023438 -3.332031 3.265625 -3.65625 C 3.503906 -3.988281 3.625 -4.300781 3.625 -4.59375 C 3.625 -4.894531 3.515625 -5.148438 3.296875 -5.359375 C 3.078125 -5.578125 2.789062 -5.6875 2.4375 -5.6875 C 2.0625 -5.6875 1.765625 -5.570312 1.546875 -5.34375 C 1.328125 -5.125 1.210938 -4.816406 1.203125 -4.421875 L 0.40625 -4.5 C 0.46875 -5.09375 0.675781 -5.546875 1.03125 -5.859375 C 1.382812 -6.171875 1.859375 -6.328125 2.453125 -6.328125 C 3.054688 -6.328125 3.535156 -6.15625 3.890625 -5.8125 C 4.242188 -5.476562 4.421875 -5.066406 4.421875 -4.578125 C 4.421875 -4.328125 4.367188 -4.078125 4.265625 -3.828125 C 4.160156 -3.585938 3.988281 -3.332031 3.75 -3.0625 C 3.507812 -2.789062 3.113281 -2.421875 2.5625 -1.953125 C 2.09375 -1.566406 1.789062 -1.300781 1.65625 -1.15625 C 1.53125 -1.019531 1.425781 -0.882812 1.34375 -0.75 Z M 4.421875 -0.75 "/>
</g>
<g id="glyph-1-8">
<path d="M 1.296875 0 L 0.578125 0 L 0.578125 -6.296875 L 1.34375 -6.296875 L 1.34375 -4.046875 C 1.675781 -4.460938 2.09375 -4.671875 2.59375 -4.671875 C 2.875 -4.671875 3.140625 -4.613281 3.390625 -4.5 C 3.640625 -4.382812 3.84375 -4.222656 4 -4.015625 C 4.164062 -3.816406 4.296875 -3.570312 4.390625 -3.28125 C 4.484375 -2.988281 4.53125 -2.675781 4.53125 -2.34375 C 4.53125 -1.5625 4.335938 -0.957031 3.953125 -0.53125 C 3.566406 -0.101562 3.101562 0.109375 2.5625 0.109375 C 2.019531 0.109375 1.597656 -0.117188 1.296875 -0.578125 Z M 1.28125 -2.3125 C 1.28125 -1.769531 1.351562 -1.375 1.5 -1.125 C 1.75 -0.726562 2.082031 -0.53125 2.5 -0.53125 C 2.832031 -0.53125 3.117188 -0.675781 3.359375 -0.96875 C 3.609375 -1.257812 3.734375 -1.695312 3.734375 -2.28125 C 3.734375 -2.875 3.613281 -3.3125 3.375 -3.59375 C 3.144531 -3.882812 2.863281 -4.03125 2.53125 -4.03125 C 2.1875 -4.03125 1.890625 -3.882812 1.640625 -3.59375 C 1.398438 -3.300781 1.28125 -2.875 1.28125 -2.3125 Z M 1.28125 -2.3125 "/>
</g>
<g id="glyph-1-9">
<path d="M 3.5625 -1.671875 L 4.3125 -1.578125 C 4.226562 -1.046875 4.015625 -0.628906 3.671875 -0.328125 C 3.335938 -0.0351562 2.921875 0.109375 2.421875 0.109375 C 1.796875 0.109375 1.289062 -0.09375 0.90625 -0.5 C 0.53125 -0.914062 0.34375 -1.503906 0.34375 -2.265625 C 0.34375 -2.753906 0.421875 -3.179688 0.578125 -3.546875 C 0.742188 -3.921875 0.992188 -4.203125 1.328125 -4.390625 C 1.660156 -4.578125 2.023438 -4.671875 2.421875 -4.671875 C 2.921875 -4.671875 3.328125 -4.539062 3.640625 -4.28125 C 3.953125 -4.03125 4.15625 -3.675781 4.25 -3.21875 L 3.484375 -3.109375 C 3.421875 -3.410156 3.296875 -3.640625 3.109375 -3.796875 C 2.929688 -3.953125 2.710938 -4.03125 2.453125 -4.03125 C 2.066406 -4.03125 1.75 -3.890625 1.5 -3.609375 C 1.257812 -3.328125 1.140625 -2.882812 1.140625 -2.28125 C 1.140625 -1.664062 1.253906 -1.21875 1.484375 -0.9375 C 1.722656 -0.664062 2.03125 -0.53125 2.40625 -0.53125 C 2.707031 -0.53125 2.957031 -0.625 3.15625 -0.8125 C 3.363281 -1 3.5 -1.285156 3.5625 -1.671875 Z M 3.5625 -1.671875 "/>
</g>
<g id="glyph-1-10">
<path d="M 0.578125 0 L 0.578125 -6.296875 L 1.359375 -6.296875 L 1.359375 -4.03125 C 1.710938 -4.457031 2.164062 -4.671875 2.71875 -4.671875 C 3.050781 -4.671875 3.34375 -4.601562 3.59375 -4.46875 C 3.84375 -4.332031 4.019531 -4.144531 4.125 -3.90625 C 4.238281 -3.675781 4.296875 -3.335938 4.296875 -2.890625 L 4.296875 0 L 3.515625 0 L 3.515625 -2.890625 C 3.515625 -3.273438 3.429688 -3.554688 3.265625 -3.734375 C 3.097656 -3.910156 2.863281 -4 2.5625 -4 C 2.332031 -4 2.113281 -3.9375 1.90625 -3.8125 C 1.707031 -3.695312 1.566406 -3.535156 1.484375 -3.328125 C 1.398438 -3.128906 1.359375 -2.851562 1.359375 -2.5 L 1.359375 0 Z M 0.578125 0 "/>
</g>
<g id="glyph-1-11">
<path d="M 1.09375 1.84375 L 0.53125 1.84375 C 1.382812 0.476562 1.8125 -0.894531 1.8125 -2.28125 C 1.8125 -2.8125 1.75 -3.34375 1.625 -3.875 C 1.53125 -4.300781 1.394531 -4.710938 1.21875 -5.109375 C 1.113281 -5.367188 0.882812 -5.800781 0.53125 -6.40625 L 1.09375 -6.40625 C 1.625 -5.6875 2.019531 -4.960938 2.28125 -4.234375 C 2.5 -3.609375 2.609375 -2.957031 2.609375 -2.28125 C 2.609375 -1.507812 2.457031 -0.757812 2.15625 -0.03125 C 1.863281 0.6875 1.507812 1.3125 1.09375 1.84375 Z M 1.09375 1.84375 "/>
</g>
<g id="glyph-1-12">
<path d="M 0.390625 -2.015625 L 1.1875 -2.09375 C 1.21875 -1.78125 1.300781 -1.519531 1.4375 -1.3125 C 1.570312 -1.113281 1.78125 -0.953125 2.0625 -0.828125 C 2.351562 -0.703125 2.679688 -0.640625 3.046875 -0.640625 C 3.359375 -0.640625 3.632812 -0.6875 3.875 -0.78125 C 4.125 -0.875 4.304688 -1.003906 4.421875 -1.171875 C 4.546875 -1.335938 4.609375 -1.515625 4.609375 -1.703125 C 4.609375 -1.898438 4.550781 -2.070312 4.4375 -2.21875 C 4.320312 -2.375 4.128906 -2.5 3.859375 -2.59375 C 3.691406 -2.664062 3.316406 -2.769531 2.734375 -2.90625 C 2.160156 -3.039062 1.757812 -3.171875 1.53125 -3.296875 C 1.226562 -3.453125 1.003906 -3.644531 0.859375 -3.875 C 0.710938 -4.113281 0.640625 -4.378906 0.640625 -4.671875 C 0.640625 -4.984375 0.726562 -5.273438 0.90625 -5.546875 C 1.082031 -5.828125 1.34375 -6.039062 1.6875 -6.1875 C 2.039062 -6.332031 2.429688 -6.40625 2.859375 -6.40625 C 3.316406 -6.40625 3.722656 -6.328125 4.078125 -6.171875 C 4.441406 -6.023438 4.71875 -5.804688 4.90625 -5.515625 C 5.101562 -5.222656 5.207031 -4.890625 5.21875 -4.515625 L 4.421875 -4.46875 C 4.378906 -4.863281 4.234375 -5.160156 3.984375 -5.359375 C 3.734375 -5.566406 3.367188 -5.671875 2.890625 -5.671875 C 2.378906 -5.671875 2.007812 -5.578125 1.78125 -5.390625 C 1.550781 -5.203125 1.4375 -4.976562 1.4375 -4.71875 C 1.4375 -4.5 1.519531 -4.316406 1.6875 -4.171875 C 1.84375 -4.023438 2.257812 -3.875 2.9375 -3.71875 C 3.613281 -3.5625 4.078125 -3.425781 4.328125 -3.3125 C 4.703125 -3.144531 4.972656 -2.929688 5.140625 -2.671875 C 5.316406 -2.410156 5.40625 -2.113281 5.40625 -1.78125 C 5.40625 -1.445312 5.304688 -1.128906 5.109375 -0.828125 C 4.921875 -0.535156 4.644531 -0.304688 4.28125 -0.140625 C 3.925781 0.0234375 3.523438 0.109375 3.078125 0.109375 C 2.503906 0.109375 2.023438 0.0234375 1.640625 -0.140625 C 1.253906 -0.304688 0.953125 -0.554688 0.734375 -0.890625 C 0.515625 -1.222656 0.398438 -1.597656 0.390625 -2.015625 Z M 0.390625 -2.015625 "/>
</g>
<g id="glyph-1-13">
<path d="M 0.5625 0 L 0.5625 -6.296875 L 1.328125 -6.296875 L 1.328125 0 Z M 0.5625 0 "/>
</g>
<g id="glyph-1-14">
<path d="M 0.578125 -5.40625 L 0.578125 -6.296875 L 1.359375 -6.296875 L 1.359375 -5.40625 Z M 0.578125 0 L 0.578125 -4.5625 L 1.359375 -4.5625 L 1.359375 0 Z M 0.578125 0 "/>
</g>
<g id="glyph-1-15">
<path d="M 3.546875 0 L 3.546875 -0.578125 C 3.253906 -0.117188 2.828125 0.109375 2.265625 0.109375 C 1.898438 0.109375 1.5625 0.0078125 1.25 -0.1875 C 0.945312 -0.394531 0.710938 -0.675781 0.546875 -1.03125 C 0.378906 -1.394531 0.296875 -1.8125 0.296875 -2.28125 C 0.296875 -2.726562 0.367188 -3.140625 0.515625 -3.515625 C 0.671875 -3.890625 0.898438 -4.175781 1.203125 -4.375 C 1.515625 -4.570312 1.859375 -4.671875 2.234375 -4.671875 C 2.503906 -4.671875 2.742188 -4.609375 2.953125 -4.484375 C 3.171875 -4.367188 3.347656 -4.21875 3.484375 -4.03125 L 3.484375 -6.296875 L 4.25 -6.296875 L 4.25 0 Z M 1.09375 -2.28125 C 1.09375 -1.695312 1.210938 -1.257812 1.453125 -0.96875 C 1.703125 -0.675781 2 -0.53125 2.34375 -0.53125 C 2.675781 -0.53125 2.957031 -0.664062 3.1875 -0.9375 C 3.425781 -1.21875 3.546875 -1.644531 3.546875 -2.21875 C 3.546875 -2.84375 3.425781 -3.300781 3.1875 -3.59375 C 2.945312 -3.882812 2.648438 -4.03125 2.296875 -4.03125 C 1.953125 -4.03125 1.664062 -3.890625 1.4375 -3.609375 C 1.207031 -3.328125 1.09375 -2.882812 1.09375 -2.28125 Z M 1.09375 -2.28125 "/>
</g>
<g id="glyph-1-16">
<path d="M 0.671875 0 L 0.671875 -6.296875 L 3.046875 -6.296875 C 3.472656 -6.296875 3.796875 -6.273438 4.015625 -6.234375 C 4.316406 -6.179688 4.570312 -6.082031 4.78125 -5.9375 C 5 -5.789062 5.171875 -5.585938 5.296875 -5.328125 C 5.421875 -5.066406 5.484375 -4.78125 5.484375 -4.46875 C 5.484375 -3.9375 5.3125 -3.484375 4.96875 -3.109375 C 4.632812 -2.742188 4.019531 -2.5625 3.125 -2.5625 L 1.515625 -2.5625 L 1.515625 0 Z M 1.515625 -3.296875 L 3.140625 -3.296875 C 3.679688 -3.296875 4.0625 -3.394531 4.28125 -3.59375 C 4.507812 -3.800781 4.625 -4.085938 4.625 -4.453125 C 4.625 -4.710938 4.554688 -4.9375 4.421875 -5.125 C 4.296875 -5.3125 4.125 -5.4375 3.90625 -5.5 C 3.757812 -5.53125 3.5 -5.546875 3.125 -5.546875 L 1.515625 -5.546875 Z M 1.515625 -3.296875 "/>
</g>
<g id="glyph-1-17">
<path d="M 0.578125 0 L 0.578125 -4.5625 L 1.265625 -4.5625 L 1.265625 -3.875 C 1.441406 -4.195312 1.601562 -4.410156 1.75 -4.515625 C 1.90625 -4.617188 2.070312 -4.671875 2.25 -4.671875 C 2.507812 -4.671875 2.773438 -4.585938 3.046875 -4.421875 L 2.78125 -3.703125 C 2.59375 -3.804688 2.40625 -3.859375 2.21875 -3.859375 C 2.050781 -3.859375 1.898438 -3.804688 1.765625 -3.703125 C 1.628906 -3.609375 1.53125 -3.472656 1.46875 -3.296875 C 1.382812 -3.015625 1.34375 -2.710938 1.34375 -2.390625 L 1.34375 0 Z M 0.578125 0 "/>
</g>
<g id="glyph-1-18">
<path d="M 0.28125 -1.890625 L 0.28125 -2.671875 L 2.65625 -2.671875 L 2.65625 -1.890625 Z M 0.28125 -1.890625 "/>
</g>
<g id="glyph-1-19">
<path d="M 0.703125 0 L 0.703125 -6.296875 L 1.53125 -6.296875 L 1.53125 -3.71875 L 4.8125 -3.71875 L 4.8125 -6.296875 L 5.640625 -6.296875 L 5.640625 0 L 4.8125 0 L 4.8125 -2.96875 L 1.53125 -2.96875 L 1.53125 0 Z M 0.703125 0 "/>
</g>
<g id="glyph-1-20">
<path d="M 0.578125 0 L 0.578125 -4.5625 L 1.265625 -4.5625 L 1.265625 -3.921875 C 1.410156 -4.140625 1.601562 -4.316406 1.84375 -4.453125 C 2.082031 -4.597656 2.351562 -4.671875 2.65625 -4.671875 C 2.988281 -4.671875 3.265625 -4.597656 3.484375 -4.453125 C 3.703125 -4.316406 3.851562 -4.117188 3.9375 -3.859375 C 4.300781 -4.398438 4.773438 -4.671875 5.359375 -4.671875 C 5.804688 -4.671875 6.148438 -4.539062 6.390625 -4.28125 C 6.640625 -4.03125 6.765625 -3.644531 6.765625 -3.125 L 6.765625 0 L 5.984375 0 L 5.984375 -2.875 C 5.984375 -3.1875 5.957031 -3.410156 5.90625 -3.546875 C 5.863281 -3.679688 5.773438 -3.789062 5.640625 -3.875 C 5.515625 -3.957031 5.363281 -4 5.1875 -4 C 4.863281 -4 4.59375 -3.890625 4.375 -3.671875 C 4.164062 -3.460938 4.0625 -3.125 4.0625 -2.65625 L 4.0625 0 L 3.296875 0 L 3.296875 -2.96875 C 3.296875 -3.3125 3.226562 -3.566406 3.09375 -3.734375 C 2.96875 -3.910156 2.765625 -4 2.484375 -4 C 2.265625 -4 2.0625 -3.941406 1.875 -3.828125 C 1.695312 -3.710938 1.566406 -3.539062 1.484375 -3.3125 C 1.398438 -3.09375 1.359375 -2.773438 1.359375 -2.359375 L 1.359375 0 Z M 0.578125 0 "/>
</g>
<g id="glyph-1-21">
<path d="M 0.296875 -2.28125 C 0.296875 -3.125 0.53125 -3.75 1 -4.15625 C 1.382812 -4.5 1.863281 -4.671875 2.4375 -4.671875 C 3.0625 -4.671875 3.570312 -4.460938 3.96875 -4.046875 C 4.363281 -3.640625 4.5625 -3.070312 4.5625 -2.34375 C 4.5625 -1.757812 4.472656 -1.296875 4.296875 -0.953125 C 4.117188 -0.617188 3.863281 -0.359375 3.53125 -0.171875 C 3.195312 0.015625 2.832031 0.109375 2.4375 0.109375 C 1.789062 0.109375 1.269531 -0.09375 0.875 -0.5 C 0.488281 -0.914062 0.296875 -1.507812 0.296875 -2.28125 Z M 1.09375 -2.28125 C 1.09375 -1.695312 1.21875 -1.257812 1.46875 -0.96875 C 1.71875 -0.675781 2.039062 -0.53125 2.4375 -0.53125 C 2.8125 -0.53125 3.125 -0.675781 3.375 -0.96875 C 3.632812 -1.257812 3.765625 -1.707031 3.765625 -2.3125 C 3.765625 -2.875 3.632812 -3.300781 3.375 -3.59375 C 3.125 -3.882812 2.8125 -4.03125 2.4375 -4.03125 C 2.039062 -4.03125 1.71875 -3.882812 1.46875 -3.59375 C 1.21875 -3.300781 1.09375 -2.863281 1.09375 -2.28125 Z M 1.09375 -2.28125 "/>
</g>
<g id="glyph-1-22">
<path d="M 0.578125 0 L 0.578125 -4.5625 L 1.28125 -4.5625 L 1.28125 -3.90625 C 1.613281 -4.414062 2.097656 -4.671875 2.734375 -4.671875 C 3.003906 -4.671875 3.253906 -4.617188 3.484375 -4.515625 C 3.710938 -4.421875 3.882812 -4.289062 4 -4.125 C 4.113281 -3.96875 4.195312 -3.78125 4.25 -3.5625 C 4.269531 -3.414062 4.28125 -3.164062 4.28125 -2.8125 L 4.28125 0 L 3.515625 0 L 3.515625 -2.78125 C 3.515625 -3.09375 3.484375 -3.328125 3.421875 -3.484375 C 3.359375 -3.640625 3.25 -3.765625 3.09375 -3.859375 C 2.945312 -3.953125 2.769531 -4 2.5625 -4 C 2.238281 -4 1.957031 -3.894531 1.71875 -3.6875 C 1.476562 -3.476562 1.359375 -3.078125 1.359375 -2.484375 L 1.359375 0 Z M 0.578125 0 "/>
</g>
<g id="glyph-1-23">
<path d="M 0.546875 1.75 L 0.453125 1.03125 C 0.628906 1.070312 0.78125 1.09375 0.90625 1.09375 C 1.070312 1.09375 1.207031 1.0625 1.3125 1 C 1.414062 0.945312 1.5 0.867188 1.5625 0.765625 C 1.613281 0.691406 1.691406 0.503906 1.796875 0.203125 C 1.816406 0.160156 1.84375 0.0976562 1.875 0.015625 L 0.140625 -4.5625 L 0.96875 -4.5625 L 1.921875 -1.921875 C 2.046875 -1.585938 2.15625 -1.234375 2.25 -0.859375 C 2.34375 -1.210938 2.453125 -1.5625 2.578125 -1.90625 L 3.546875 -4.5625 L 4.328125 -4.5625 L 2.578125 0.078125 C 2.398438 0.578125 2.257812 0.921875 2.15625 1.109375 C 2.019531 1.367188 1.859375 1.554688 1.671875 1.671875 C 1.492188 1.785156 1.285156 1.84375 1.046875 1.84375 C 0.898438 1.84375 0.734375 1.8125 0.546875 1.75 Z M 0.546875 1.75 "/>
</g>
<g id="glyph-1-24">
<path d="M 3.28125 0 L 2.5 0 L 2.5 -4.921875 C 2.3125 -4.742188 2.066406 -4.566406 1.765625 -4.390625 C 1.460938 -4.210938 1.191406 -4.082031 0.953125 -4 L 0.953125 -4.734375 C 1.390625 -4.941406 1.769531 -5.191406 2.09375 -5.484375 C 2.414062 -5.773438 2.644531 -6.054688 2.78125 -6.328125 L 3.28125 -6.328125 Z M 3.28125 0 "/>
</g>
<g id="glyph-1-25">
<path d="M 0.375 -1.65625 L 1.140625 -1.765625 C 1.234375 -1.328125 1.382812 -1.007812 1.59375 -0.8125 C 1.8125 -0.625 2.070312 -0.53125 2.375 -0.53125 C 2.738281 -0.53125 3.046875 -0.65625 3.296875 -0.90625 C 3.546875 -1.15625 3.671875 -1.46875 3.671875 -1.84375 C 3.671875 -2.195312 3.554688 -2.488281 3.328125 -2.71875 C 3.097656 -2.945312 2.800781 -3.0625 2.4375 -3.0625 C 2.289062 -3.0625 2.109375 -3.035156 1.890625 -2.984375 L 1.984375 -3.65625 C 2.035156 -3.65625 2.078125 -3.65625 2.109375 -3.65625 C 2.429688 -3.65625 2.722656 -3.738281 2.984375 -3.90625 C 3.253906 -4.082031 3.390625 -4.347656 3.390625 -4.703125 C 3.390625 -4.984375 3.289062 -5.21875 3.09375 -5.40625 C 2.90625 -5.59375 2.660156 -5.6875 2.359375 -5.6875 C 2.054688 -5.6875 1.804688 -5.59375 1.609375 -5.40625 C 1.410156 -5.21875 1.28125 -4.929688 1.21875 -4.546875 L 0.453125 -4.6875 C 0.546875 -5.207031 0.757812 -5.609375 1.09375 -5.890625 C 1.425781 -6.179688 1.84375 -6.328125 2.34375 -6.328125 C 2.6875 -6.328125 3 -6.25 3.28125 -6.09375 C 3.570312 -5.945312 3.796875 -5.742188 3.953125 -5.484375 C 4.109375 -5.234375 4.1875 -4.96875 4.1875 -4.6875 C 4.1875 -4.414062 4.113281 -4.164062 3.96875 -3.9375 C 3.820312 -3.71875 3.601562 -3.539062 3.3125 -3.40625 C 3.6875 -3.320312 3.976562 -3.144531 4.1875 -2.875 C 4.394531 -2.601562 4.5 -2.265625 4.5 -1.859375 C 4.5 -1.304688 4.296875 -0.835938 3.890625 -0.453125 C 3.492188 -0.078125 2.988281 0.109375 2.375 0.109375 C 1.820312 0.109375 1.363281 -0.0507812 1 -0.375 C 0.632812 -0.707031 0.425781 -1.132812 0.375 -1.65625 Z M 0.375 -1.65625 "/>
</g>
<g id="glyph-1-26">
<path d="M 0.796875 0 L 0.796875 -0.875 L 1.671875 -0.875 L 1.671875 0 Z M 0.796875 0 "/>
</g>
<g id="glyph-1-27">
<path d="M 0.359375 -3.109375 C 0.359375 -3.847656 0.4375 -4.441406 0.59375 -4.890625 C 0.75 -5.347656 0.976562 -5.703125 1.28125 -5.953125 C 1.582031 -6.203125 1.960938 -6.328125 2.421875 -6.328125 C 2.753906 -6.328125 3.046875 -6.257812 3.296875 -6.125 C 3.554688 -5.988281 3.769531 -5.789062 3.9375 -5.53125 C 4.101562 -5.269531 4.234375 -4.957031 4.328125 -4.59375 C 4.421875 -4.226562 4.46875 -3.734375 4.46875 -3.109375 C 4.46875 -2.367188 4.390625 -1.769531 4.234375 -1.3125 C 4.085938 -0.863281 3.863281 -0.515625 3.5625 -0.265625 C 3.257812 -0.015625 2.878906 0.109375 2.421875 0.109375 C 1.804688 0.109375 1.328125 -0.109375 0.984375 -0.546875 C 0.566406 -1.066406 0.359375 -1.921875 0.359375 -3.109375 Z M 1.15625 -3.109375 C 1.15625 -2.078125 1.273438 -1.390625 1.515625 -1.046875 C 1.765625 -0.703125 2.066406 -0.53125 2.421875 -0.53125 C 2.773438 -0.53125 3.070312 -0.703125 3.3125 -1.046875 C 3.550781 -1.390625 3.671875 -2.078125 3.671875 -3.109375 C 3.671875 -4.140625 3.550781 -4.828125 3.3125 -5.171875 C 3.070312 -5.515625 2.769531 -5.6875 2.40625 -5.6875 C 2.050781 -5.6875 1.769531 -5.535156 1.5625 -5.234375 C 1.289062 -4.847656 1.15625 -4.140625 1.15625 -3.109375 Z M 1.15625 -3.109375 "/>
</g>
<g id="glyph-1-28">
<path d="M 2.84375 0 L 2.84375 -1.5 L 0.109375 -1.5 L 0.109375 -2.21875 L 2.984375 -6.296875 L 3.609375 -6.296875 L 3.609375 -2.21875 L 4.46875 -2.21875 L 4.46875 -1.5 L 3.609375 -1.5 L 3.609375 0 Z M 2.84375 -2.21875 L 2.84375 -5.0625 L 0.875 -2.21875 Z M 2.84375 -2.21875 "/>
</g>
<g id="glyph-2-0">
<path d="M -6.765625 -0.734375 L -7.875 -0.734375 L -7.875 -1.703125 L -6.765625 -1.703125 Z M 0 -0.734375 L -5.703125 -0.734375 L -5.703125 -1.703125 L 0 -1.703125 Z M 0 -0.734375 "/>
</g>
<g id="glyph-2-1">
<path d="M 0 -0.8125 L -7.875 -0.8125 L -7.875 -1.84375 L -0.921875 -1.84375 L -0.921875 -5.71875 L 0 -5.71875 Z M 0 -0.8125 "/>
</g>
<g id="glyph-2-2">
<path d="M 0 -1.03125 L -7.875 -1.03125 L -7.875 -2.0625 L 0 -2.0625 Z M 0 -1.03125 "/>
</g>
<g id="glyph-2-3">
<path d="M -2.53125 -0.5 L -2.609375 -1.484375 C -2.222656 -1.523438 -1.898438 -1.628906 -1.640625 -1.796875 C -1.390625 -1.972656 -1.1875 -2.238281 -1.03125 -2.59375 C -0.875 -2.945312 -0.796875 -3.347656 -0.796875 -3.796875 C -0.796875 -4.203125 -0.851562 -4.554688 -0.96875 -4.859375 C -1.09375 -5.160156 -1.253906 -5.382812 -1.453125 -5.53125 C -1.660156 -5.6875 -1.890625 -5.765625 -2.140625 -5.765625 C -2.390625 -5.765625 -2.601562 -5.691406 -2.78125 -5.546875 C -2.96875 -5.398438 -3.125 -5.160156 -3.25 -4.828125 C -3.332031 -4.617188 -3.457031 -4.148438 -3.625 -3.421875 C -3.800781 -2.703125 -3.96875 -2.195312 -4.125 -1.90625 C -4.320312 -1.53125 -4.566406 -1.25 -4.859375 -1.0625 C -5.148438 -0.882812 -5.476562 -0.796875 -5.84375 -0.796875 C -6.238281 -0.796875 -6.609375 -0.90625 -6.953125 -1.125 C -7.296875 -1.351562 -7.554688 -1.679688 -7.734375 -2.109375 C -7.921875 -2.546875 -8.015625 -3.03125 -8.015625 -3.5625 C -8.015625 -4.144531 -7.914062 -4.660156 -7.71875 -5.109375 C -7.53125 -5.554688 -7.253906 -5.898438 -6.890625 -6.140625 C -6.523438 -6.378906 -6.113281 -6.507812 -5.65625 -6.53125 L -5.578125 -5.53125 C -6.078125 -5.476562 -6.453125 -5.296875 -6.703125 -4.984375 C -6.960938 -4.671875 -7.09375 -4.210938 -7.09375 -3.609375 C -7.09375 -2.984375 -6.972656 -2.523438 -6.734375 -2.234375 C -6.503906 -1.941406 -6.226562 -1.796875 -5.90625 -1.796875 C -5.625 -1.796875 -5.390625 -1.898438 -5.203125 -2.109375 C -5.023438 -2.304688 -4.835938 -2.828125 -4.640625 -3.671875 C -4.453125 -4.523438 -4.285156 -5.109375 -4.140625 -5.421875 C -3.929688 -5.878906 -3.664062 -6.21875 -3.34375 -6.4375 C -3.019531 -6.65625 -2.644531 -6.765625 -2.21875 -6.765625 C -1.800781 -6.765625 -1.40625 -6.644531 -1.03125 -6.40625 C -0.664062 -6.164062 -0.378906 -5.816406 -0.171875 -5.359375 C 0.0351562 -4.910156 0.140625 -4.40625 0.140625 -3.84375 C 0.140625 -3.132812 0.0351562 -2.539062 -0.171875 -2.0625 C -0.378906 -1.582031 -0.691406 -1.203125 -1.109375 -0.921875 C -1.523438 -0.648438 -2 -0.507812 -2.53125 -0.5 Z M -2.53125 -0.5 "/>
</g>
<g id="glyph-2-4">
</g>
<g id="glyph-2-5">
<path d="M 2.3125 -2.578125 C 1.644531 -2.035156 0.859375 -1.582031 -0.046875 -1.21875 C -0.953125 -0.851562 -1.890625 -0.671875 -2.859375 -0.671875 C -3.703125 -0.671875 -4.515625 -0.804688 -5.296875 -1.078125 C -6.203125 -1.398438 -7.109375 -1.898438 -8.015625 -2.578125 L -8.015625 -3.265625 C -7.265625 -2.828125 -6.726562 -2.539062 -6.40625 -2.40625 C -5.914062 -2.1875 -5.398438 -2.015625 -4.859375 -1.890625 C -4.191406 -1.734375 -3.519531 -1.65625 -2.84375 -1.65625 C -1.125 -1.65625 0.59375 -2.191406 2.3125 -3.265625 Z M 2.3125 -2.578125 "/>
</g>
<g id="glyph-2-6">
<path d="M 0 -0.71875 L -7.875 -0.71875 L -7.875 -1.6875 L -5.046875 -1.6875 C -5.566406 -2.144531 -5.828125 -2.71875 -5.828125 -3.40625 C -5.828125 -3.820312 -5.742188 -4.1875 -5.578125 -4.5 C -5.410156 -4.8125 -5.179688 -5.035156 -4.890625 -5.171875 C -4.597656 -5.304688 -4.171875 -5.375 -3.609375 -5.375 L 0 -5.375 L 0 -4.40625 L -3.609375 -4.40625 C -4.097656 -4.40625 -4.453125 -4.300781 -4.671875 -4.09375 C -4.890625 -3.882812 -5 -3.585938 -5 -3.203125 C -5 -2.910156 -4.925781 -2.640625 -4.78125 -2.390625 C -4.632812 -2.140625 -4.429688 -1.957031 -4.171875 -1.84375 C -3.921875 -1.738281 -3.570312 -1.6875 -3.125 -1.6875 L 0 -1.6875 Z M 0 -0.71875 "/>
</g>
<g id="glyph-2-7">
<path d="M 0.46875 -0.546875 L 0.609375 -1.484375 C 0.898438 -1.523438 1.113281 -1.632812 1.25 -1.8125 C 1.425781 -2.050781 1.515625 -2.378906 1.515625 -2.796875 C 1.515625 -3.242188 1.425781 -3.585938 1.25 -3.828125 C 1.070312 -4.078125 0.820312 -4.242188 0.5 -4.328125 C 0.300781 -4.378906 -0.113281 -4.40625 -0.75 -4.40625 C -0.25 -3.976562 0 -3.445312 0 -2.8125 C 0 -2.03125 -0.28125 -1.425781 -0.84375 -1 C -1.414062 -0.570312 -2.097656 -0.359375 -2.890625 -0.359375 C -3.429688 -0.359375 -3.929688 -0.457031 -4.390625 -0.65625 C -4.847656 -0.851562 -5.203125 -1.132812 -5.453125 -1.5 C -5.703125 -1.875 -5.828125 -2.316406 -5.828125 -2.828125 C -5.828125 -3.492188 -5.554688 -4.046875 -5.015625 -4.484375 L -5.703125 -4.484375 L -5.703125 -5.375 L -0.78125 -5.375 C 0.113281 -5.375 0.742188 -5.285156 1.109375 -5.109375 C 1.484375 -4.929688 1.773438 -4.644531 1.984375 -4.25 C 2.203125 -3.851562 2.3125 -3.367188 2.3125 -2.796875 C 2.3125 -2.117188 2.15625 -1.570312 1.84375 -1.15625 C 1.539062 -0.738281 1.082031 -0.535156 0.46875 -0.546875 Z M -2.953125 -1.34375 C -2.203125 -1.34375 -1.65625 -1.488281 -1.3125 -1.78125 C -0.96875 -2.082031 -0.796875 -2.457031 -0.796875 -2.90625 C -0.796875 -3.351562 -0.96875 -3.726562 -1.3125 -4.03125 C -1.65625 -4.332031 -2.191406 -4.484375 -2.921875 -4.484375 C -3.617188 -4.484375 -4.144531 -4.328125 -4.5 -4.015625 C -4.851562 -3.703125 -5.03125 -3.328125 -5.03125 -2.890625 C -5.03125 -2.460938 -4.851562 -2.097656 -4.5 -1.796875 C -4.15625 -1.492188 -3.640625 -1.34375 -2.953125 -1.34375 Z M -2.953125 -1.34375 "/>
</g>
<g id="glyph-2-8">
<path d="M -1.84375 -4.625 L -1.71875 -5.625 C -1.132812 -5.46875 -0.679688 -5.175781 -0.359375 -4.75 C -0.0351562 -4.320312 0.125 -3.78125 0.125 -3.125 C 0.125 -2.289062 -0.128906 -1.628906 -0.640625 -1.140625 C -1.148438 -0.648438 -1.867188 -0.40625 -2.796875 -0.40625 C -3.765625 -0.40625 -4.507812 -0.648438 -5.03125 -1.140625 C -5.5625 -1.640625 -5.828125 -2.28125 -5.828125 -3.0625 C -5.828125 -3.832031 -5.566406 -4.457031 -5.046875 -4.9375 C -4.535156 -5.414062 -3.804688 -5.65625 -2.859375 -5.65625 C -2.804688 -5.65625 -2.722656 -5.65625 -2.609375 -5.65625 L -2.609375 -1.40625 C -1.984375 -1.4375 -1.503906 -1.609375 -1.171875 -1.921875 C -0.835938 -2.242188 -0.671875 -2.644531 -0.671875 -3.125 C -0.671875 -3.476562 -0.757812 -3.78125 -0.9375 -4.03125 C -1.125 -4.28125 -1.425781 -4.476562 -1.84375 -4.625 Z M -3.40625 -1.453125 L -3.40625 -4.640625 C -3.882812 -4.597656 -4.242188 -4.476562 -4.484375 -4.28125 C -4.847656 -3.96875 -5.03125 -3.566406 -5.03125 -3.078125 C -5.03125 -2.628906 -4.878906 -2.253906 -4.578125 -1.953125 C -4.285156 -1.648438 -3.894531 -1.484375 -3.40625 -1.453125 Z M -3.40625 -1.453125 "/>
</g>
<g id="glyph-2-9">
<path d="M 0 -0.71875 L -5.703125 -0.71875 L -5.703125 -1.578125 L -4.84375 -1.578125 C -5.25 -1.804688 -5.515625 -2.015625 -5.640625 -2.203125 C -5.765625 -2.390625 -5.828125 -2.59375 -5.828125 -2.8125 C -5.828125 -3.144531 -5.722656 -3.476562 -5.515625 -3.8125 L -4.625 -3.484375 C -4.757812 -3.242188 -4.828125 -3.003906 -4.828125 -2.765625 C -4.828125 -2.554688 -4.765625 -2.367188 -4.640625 -2.203125 C -4.515625 -2.035156 -4.335938 -1.914062 -4.109375 -1.84375 C -3.765625 -1.738281 -3.390625 -1.6875 -2.984375 -1.6875 L 0 -1.6875 Z M 0 -0.71875 "/>
</g>
<g id="glyph-2-10">
<path d="M -4.625 -5.8125 L -4.625 -0.609375 L -5.53125 -0.609375 L -5.53125 -5.8125 Z M -2.234375 -5.8125 L -2.234375 -0.609375 L -3.140625 -0.609375 L -3.140625 -5.8125 Z M -2.234375 -5.8125 "/>
</g>
<g id="glyph-2-11">
<path d="M 0 -1.609375 L 0 -0.71875 L -7.875 -0.71875 L -7.875 -1.6875 L -5.0625 -1.6875 C -5.570312 -2.09375 -5.828125 -2.613281 -5.828125 -3.25 C -5.828125 -3.601562 -5.753906 -3.9375 -5.609375 -4.25 C -5.472656 -4.5625 -5.273438 -4.816406 -5.015625 -5.015625 C -4.765625 -5.222656 -4.457031 -5.382812 -4.09375 -5.5 C -3.738281 -5.613281 -3.351562 -5.671875 -2.9375 -5.671875 C -1.957031 -5.671875 -1.203125 -5.425781 -0.671875 -4.9375 C -0.140625 -4.457031 0.125 -3.878906 0.125 -3.203125 C 0.125 -2.523438 -0.15625 -1.992188 -0.71875 -1.609375 Z M -2.890625 -1.609375 C -2.210938 -1.609375 -1.71875 -1.703125 -1.40625 -1.890625 C -0.914062 -2.191406 -0.671875 -2.601562 -0.671875 -3.125 C -0.671875 -3.539062 -0.851562 -3.898438 -1.21875 -4.203125 C -1.582031 -4.515625 -2.128906 -4.671875 -2.859375 -4.671875 C -3.597656 -4.671875 -4.144531 -4.523438 -4.5 -4.234375 C -4.851562 -3.941406 -5.03125 -3.582031 -5.03125 -3.15625 C -5.03125 -2.738281 -4.847656 -2.375 -4.484375 -2.0625 C -4.117188 -1.757812 -3.585938 -1.609375 -2.890625 -1.609375 Z M -2.890625 -1.609375 "/>
</g>
<g id="glyph-2-12">
<path d="M -0.859375 -2.84375 L -0.015625 -2.96875 C 0.046875 -2.695312 0.078125 -2.457031 0.078125 -2.25 C 0.078125 -1.894531 0.0195312 -1.617188 -0.09375 -1.421875 C -0.207031 -1.234375 -0.351562 -1.097656 -0.53125 -1.015625 C -0.707031 -0.941406 -1.085938 -0.90625 -1.671875 -0.90625 L -4.953125 -0.90625 L -4.953125 -0.1875 L -5.703125 -0.1875 L -5.703125 -0.90625 L -7.109375 -0.90625 L -7.703125 -1.859375 L -5.703125 -1.859375 L -5.703125 -2.84375 L -4.953125 -2.84375 L -4.953125 -1.859375 L -1.609375 -1.859375 C -1.335938 -1.859375 -1.160156 -1.875 -1.078125 -1.90625 C -1.003906 -1.945312 -0.941406 -2.003906 -0.890625 -2.078125 C -0.847656 -2.160156 -0.828125 -2.269531 -0.828125 -2.40625 C -0.828125 -2.519531 -0.835938 -2.664062 -0.859375 -2.84375 Z M -0.859375 -2.84375 "/>
</g>
<g id="glyph-2-13">
<path d="M 0 -0.71875 L -5.703125 -0.71875 L -5.703125 -1.59375 L -4.90625 -1.59375 C -5.1875 -1.769531 -5.410156 -2.003906 -5.578125 -2.296875 C -5.742188 -2.597656 -5.828125 -2.9375 -5.828125 -3.3125 C -5.828125 -3.738281 -5.738281 -4.085938 -5.5625 -4.359375 C -5.394531 -4.628906 -5.148438 -4.820312 -4.828125 -4.9375 C -5.492188 -5.382812 -5.828125 -5.96875 -5.828125 -6.6875 C -5.828125 -7.257812 -5.671875 -7.695312 -5.359375 -8 C -5.046875 -8.300781 -4.566406 -8.453125 -3.921875 -8.453125 L 0 -8.453125 L 0 -7.5 L -3.59375 -7.5 C -3.976562 -7.5 -4.253906 -7.46875 -4.421875 -7.40625 C -4.597656 -7.34375 -4.738281 -7.226562 -4.84375 -7.0625 C -4.945312 -6.894531 -5 -6.703125 -5 -6.484375 C -5 -6.078125 -4.863281 -5.738281 -4.59375 -5.46875 C -4.320312 -5.207031 -3.894531 -5.078125 -3.3125 -5.078125 L 0 -5.078125 L 0 -4.109375 L -3.703125 -4.109375 C -4.128906 -4.109375 -4.453125 -4.03125 -4.671875 -3.875 C -4.890625 -3.71875 -5 -3.460938 -5 -3.109375 C -5 -2.835938 -4.925781 -2.582031 -4.78125 -2.34375 C -4.632812 -2.113281 -4.421875 -1.945312 -4.140625 -1.84375 C -3.867188 -1.738281 -3.472656 -1.6875 -2.953125 -1.6875 L 0 -1.6875 Z M 0 -0.71875 "/>
</g>
<g id="glyph-2-14">
<path d="M 0 -0.078125 L -2.96875 -2.171875 L -5.703125 -0.234375 L -5.703125 -1.4375 L -4.359375 -2.328125 C -4.109375 -2.484375 -3.898438 -2.613281 -3.734375 -2.71875 C -3.960938 -2.875 -4.171875 -3.019531 -4.359375 -3.15625 L -5.703125 -4.109375 L -5.703125 -5.265625 L -3.015625 -3.296875 L 0 -5.421875 L 0 -4.234375 L -1.765625 -3.0625 L -2.25 -2.75 L 0 -1.25 Z M 0 -0.078125 "/>
</g>
<g id="glyph-2-15">
<path d="M 0 -4.421875 L -0.71875 -4.421875 C -0.15625 -4.066406 0.125 -3.535156 0.125 -2.828125 C 0.125 -2.378906 0 -1.960938 -0.25 -1.578125 C -0.5 -1.191406 -0.847656 -0.894531 -1.296875 -0.6875 C -1.742188 -0.476562 -2.257812 -0.375 -2.84375 -0.375 C -3.414062 -0.375 -3.929688 -0.46875 -4.390625 -0.65625 C -4.859375 -0.851562 -5.210938 -1.140625 -5.453125 -1.515625 C -5.703125 -1.890625 -5.828125 -2.3125 -5.828125 -2.78125 C -5.828125 -3.125 -5.753906 -3.429688 -5.609375 -3.703125 C -5.460938 -3.972656 -5.273438 -4.191406 -5.046875 -4.359375 L -7.875 -4.359375 L -7.875 -5.328125 L 0 -5.328125 Z M -2.84375 -1.375 C -2.113281 -1.375 -1.566406 -1.523438 -1.203125 -1.828125 C -0.847656 -2.140625 -0.671875 -2.503906 -0.671875 -2.921875 C -0.671875 -3.347656 -0.84375 -3.707031 -1.1875 -4 C -1.53125 -4.289062 -2.054688 -4.4375 -2.765625 -4.4375 C -3.546875 -4.4375 -4.117188 -4.285156 -4.484375 -3.984375 C -4.847656 -3.691406 -5.03125 -3.320312 -5.03125 -2.875 C -5.03125 -2.445312 -4.851562 -2.085938 -4.5 -1.796875 C -4.15625 -1.515625 -3.601562 -1.375 -2.84375 -1.375 Z M -2.84375 -1.375 "/>
</g>
<g id="glyph-2-16">
<path d="M 2.3125 -1.359375 L 2.3125 -0.671875 C 0.59375 -1.734375 -1.125 -2.265625 -2.84375 -2.265625 C -3.519531 -2.265625 -4.1875 -2.191406 -4.84375 -2.046875 C -5.382812 -1.921875 -5.898438 -1.75 -6.390625 -1.53125 C -6.710938 -1.394531 -7.253906 -1.109375 -8.015625 -0.671875 L -8.015625 -1.359375 C -7.109375 -2.035156 -6.203125 -2.535156 -5.296875 -2.859375 C -4.515625 -3.128906 -3.703125 -3.265625 -2.859375 -3.265625 C -1.890625 -3.265625 -0.953125 -3.078125 -0.046875 -2.703125 C 0.859375 -2.335938 1.644531 -1.890625 2.3125 -1.359375 Z M 2.3125 -1.359375 "/>
</g>
</g>
<clipPath id="clip-0">
<path clip-rule="nonzero" d="M 34.65625 21.753906 L 259.628906 21.753906 L 259.628906 306.085938 L 34.65625 306.085938 Z M 34.65625 21.753906 "/>
</clipPath>
<clipPath id="clip-1">
<path clip-rule="nonzero" d="M 34.65625 296 L 259.628906 296 L 259.628906 297 L 34.65625 297 Z M 34.65625 296 "/>
</clipPath>
<clipPath id="clip-2">
<path clip-rule="nonzero" d="M 34.65625 54 L 259.628906 54 L 259.628906 57 L 34.65625 57 Z M 34.65625 54 "/>
</clipPath>
<clipPath id="clip-3">
<path clip-rule="nonzero" d="M 34.65625 21.753906 L 259.628906 21.753906 L 259.628906 306.085938 L 34.65625 306.085938 Z M 34.65625 21.753906 "/>
</clipPath>
<clipPath id="clip-4">
<path clip-rule="nonzero" d="M 275.042969 21.753906 L 500.015625 21.753906 L 500.015625 306.085938 L 275.042969 306.085938 Z M 275.042969 21.753906 "/>
</clipPath>
<clipPath id="clip-5">
<path clip-rule="nonzero" d="M 275.042969 296 L 500.015625 296 L 500.015625 297 L 275.042969 297 Z M 275.042969 296 "/>
</clipPath>
<clipPath id="clip-6">
<path clip-rule="nonzero" d="M 275.042969 21.753906 L 500.015625 21.753906 L 500.015625 306.085938 L 275.042969 306.085938 Z M 275.042969 21.753906 "/>
</clipPath>
<clipPath id="clip-7">
<path clip-rule="nonzero" d="M 34.65625 3.984375 L 259.628906 3.984375 L 259.628906 21.75 L 34.65625 21.75 Z M 34.65625 3.984375 "/>
</clipPath>
<clipPath id="clip-8">
<path clip-rule="nonzero" d="M 275.042969 3.984375 L 500.015625 3.984375 L 500.015625 21.75 L 275.042969 21.75 Z M 275.042969 3.984375 "/>
</clipPath>
</defs>
<rect x="-50.4" y="-32.4" width="604.8" height="388.8" fill="rgb(100%, 100%, 100%)" fill-opacity="1"/>
<rect x="-50.4" y="-32.4" width="604.8" height="388.8" fill="rgb(100%, 100%, 100%)" fill-opacity="1"/>
<path fill="none" stroke-width="1.066978" stroke-linecap="round" stroke-linejoin="round" stroke="rgb(100%, 100%, 100%)" stroke-opacity="1" stroke-miterlimit="10" d="M 0 324 L 504 324 L 504 0 L 0 0 Z M 0 324 "/>
<g clip-path="url(#clip-0)">
<path fill-rule="nonzero" fill="rgb(100%, 100%, 100%)" fill-opacity="1" d="M 34.65625 306.082031 L 259.628906 306.082031 L 259.628906 21.75 L 34.65625 21.75 Z M 34.65625 306.082031 "/>
</g>
<g clip-path="url(#clip-1)">
<path fill="none" stroke-width="0.853583" stroke-linecap="butt" stroke-linejoin="round" stroke="rgb(74.901961%, 74.901961%, 74.901961%)" stroke-opacity="1" stroke-miterlimit="10" d="M 34.65625 296.445312 L 259.628906 296.445312 "/>
</g>
<path fill="none" stroke-width="2.347352" stroke-linecap="butt" stroke-linejoin="round" stroke="rgb(97.254902%, 46.27451%, 42.745098%)" stroke-opacity="1" stroke-miterlimit="10" d="M 96.011719 296.445312 L 96.011719 248.785156 "/>
<path fill="none" stroke-width="2.347352" stroke-linecap="butt" stroke-linejoin="round" stroke="rgb(0%, 74.901961%, 76.862745%)" stroke-opacity="1" stroke-miterlimit="10" d="M 198.273438 296.445312 L 198.273438 163.675781 "/>
<path fill-rule="nonzero" fill="rgb(97.254902%, 46.27451%, 42.745098%)" fill-opacity="1" stroke-width="0.708661" stroke-linecap="round" stroke-linejoin="round" stroke="rgb(97.254902%, 46.27451%, 42.745098%)" stroke-opacity="1" stroke-miterlimit="10" d="M 100.847656 248.785156 C 100.847656 255.230469 91.175781 255.230469 91.175781 248.785156 C 91.175781 242.335938 100.847656 242.335938 100.847656 248.785156 "/>
<path fill-rule="nonzero" fill="rgb(0%, 74.901961%, 76.862745%)" fill-opacity="1" stroke-width="0.708661" stroke-linecap="round" stroke-linejoin="round" stroke="rgb(0%, 74.901961%, 76.862745%)" stroke-opacity="1" stroke-miterlimit="10" d="M 203.109375 163.675781 C 203.109375 170.125 193.4375 170.125 193.4375 163.675781 C 193.4375 157.230469 203.109375 157.230469 203.109375 163.675781 "/>
<g fill="rgb(0%, 0%, 0%)" fill-opacity="1">
<use xlink:href="#glyph-0-0" x="87.011719" y="241.027344"/>
<use xlink:href="#glyph-0-1" x="92.011719" y="241.027344"/>
<use xlink:href="#glyph-0-0" x="95.011719" y="241.027344"/>
<use xlink:href="#glyph-0-2" x="100.011719" y="241.027344"/>
</g>
<g fill="rgb(0%, 0%, 0%)" fill-opacity="1">
<use xlink:href="#glyph-0-0" x="189.273438" y="155.917969"/>
<use xlink:href="#glyph-0-1" x="194.273438" y="155.917969"/>
<use xlink:href="#glyph-0-3" x="197.273438" y="155.917969"/>
<use xlink:href="#glyph-0-4" x="202.273438" y="155.917969"/>
</g>
<g clip-path="url(#clip-2)">
<path fill="none" stroke-width="1.066978" stroke-linecap="butt" stroke-linejoin="round" stroke="rgb(40%, 40%, 40%)" stroke-opacity="1" stroke-dasharray="4.267913 4.267913" stroke-miterlimit="10" d="M 34.65625 55.488281 L 259.628906 55.488281 "/>
</g>
<g clip-path="url(#clip-3)">
<path fill="none" stroke-width="1.066978" stroke-linecap="round" stroke-linejoin="round" stroke="rgb(20%, 20%, 20%)" stroke-opacity="1" stroke-miterlimit="10" d="M 34.65625 306.082031 L 259.628906 306.082031 L 259.628906 21.75 L 34.65625 21.75 Z M 34.65625 306.082031 "/>
</g>
<g clip-path="url(#clip-4)">
<path fill-rule="nonzero" fill="rgb(100%, 100%, 100%)" fill-opacity="1" d="M 275.042969 306.082031 L 500.015625 306.082031 L 500.015625 21.75 L 275.042969 21.75 Z M 275.042969 306.082031 "/>
</g>
<g clip-path="url(#clip-5)">
<path fill="none" stroke-width="0.853583" stroke-linecap="butt" stroke-linejoin="round" stroke="rgb(74.901961%, 74.901961%, 74.901961%)" stroke-opacity="1" stroke-miterlimit="10" d="M 275.042969 296.445312 L 500.015625 296.445312 "/>
</g>
<path fill="none" stroke-width="2.347352" stroke-linecap="butt" stroke-linejoin="round" stroke="rgb(97.254902%, 46.27451%, 42.745098%)" stroke-opacity="1" stroke-miterlimit="10" d="M 336.398438 296.445312 L 336.398438 129.894531 "/>
<path fill="none" stroke-width="2.347352" stroke-linecap="butt" stroke-linejoin="round" stroke="rgb(0%, 74.901961%, 76.862745%)" stroke-opacity="1" stroke-miterlimit="10" d="M 438.660156 296.445312 L 438.660156 55.488281 "/>
<path fill-rule="nonzero" fill="rgb(97.254902%, 46.27451%, 42.745098%)" fill-opacity="1" stroke-width="0.708661" stroke-linecap="round" stroke-linejoin="round" stroke="rgb(97.254902%, 46.27451%, 42.745098%)" stroke-opacity="1" stroke-miterlimit="10" d="M 341.234375 129.894531 C 341.234375 136.339844 331.5625 136.339844 331.5625 129.894531 C 331.5625 123.445312 341.234375 123.445312 341.234375 129.894531 "/>
<path fill-rule="nonzero" fill="rgb(0%, 74.901961%, 76.862745%)" fill-opacity="1" stroke-width="0.708661" stroke-linecap="round" stroke-linejoin="round" stroke="rgb(0%, 74.901961%, 76.862745%)" stroke-opacity="1" stroke-miterlimit="10" d="M 443.492188 55.488281 C 443.492188 61.933594 433.824219 61.933594 433.824219 55.488281 C 433.824219 49.039062 443.492188 49.039062 443.492188 55.488281 "/>
<g fill="rgb(0%, 0%, 0%)" fill-opacity="1">
<use xlink:href="#glyph-0-3" x="327.398438" y="122.136719"/>
<use xlink:href="#glyph-0-1" x="332.398438" y="122.136719"/>
<use xlink:href="#glyph-0-5" x="335.398438" y="122.136719"/>
<use xlink:href="#glyph-0-4" x="340.398438" y="122.136719"/>
</g>
<g fill="rgb(0%, 0%, 0%)" fill-opacity="1">
<use xlink:href="#glyph-0-6" x="429.660156" y="47.730469"/>
<use xlink:href="#glyph-0-1" x="434.660156" y="47.730469"/>
<use xlink:href="#glyph-0-7" x="437.660156" y="47.730469"/>
<use xlink:href="#glyph-0-6" x="442.660156" y="47.730469"/>
</g>
<g clip-path="url(#clip-6)">
<path fill="none" stroke-width="1.066978" stroke-linecap="round" stroke-linejoin="round" stroke="rgb(20%, 20%, 20%)" stroke-opacity="1" stroke-miterlimit="10" d="M 275.042969 306.082031 L 500.015625 306.082031 L 500.015625 21.75 L 275.042969 21.75 Z M 275.042969 306.082031 "/>
</g>
<g clip-path="url(#clip-7)">
<path fill-rule="nonzero" fill="rgb(94.901961%, 94.901961%, 94.901961%)" fill-opacity="1" d="M 34.65625 21.753906 L 259.628906 21.753906 L 259.628906 3.988281 L 34.65625 3.988281 Z M 34.65625 21.753906 "/>
</g>
<g fill="rgb(10.196078%, 10.196078%, 10.196078%)" fill-opacity="1">
<use xlink:href="#glyph-1-0" x="110.144531" y="16.333008"/>
<use xlink:href="#glyph-1-1" x="116.144531" y="16.333008"/>
<use xlink:href="#glyph-1-2" x="121.144531" y="16.333008"/>
<use xlink:href="#glyph-1-1" x="123.144531" y="16.333008"/>
<use xlink:href="#glyph-1-3" x="128.144531" y="16.333008"/>
<use xlink:href="#glyph-1-4" x="132.144531" y="16.333008"/>
<use xlink:href="#glyph-1-2" x="137.144531" y="16.333008"/>
<use xlink:href="#glyph-1-5" x="139.144531" y="16.333008"/>
<use xlink:href="#glyph-1-6" x="141.144531" y="16.333008"/>
<use xlink:href="#glyph-1-7" x="144.144531" y="16.333008"/>
<use xlink:href="#glyph-1-5" x="149.144531" y="16.333008"/>
<use xlink:href="#glyph-1-8" x="151.144531" y="16.333008"/>
<use xlink:href="#glyph-1-1" x="156.144531" y="16.333008"/>
<use xlink:href="#glyph-1-2" x="161.144531" y="16.333008"/>
<use xlink:href="#glyph-1-9" x="163.144531" y="16.333008"/>
<use xlink:href="#glyph-1-10" x="167.144531" y="16.333008"/>
<use xlink:href="#glyph-1-4" x="172.144531" y="16.333008"/>
<use xlink:href="#glyph-1-3" x="177.144531" y="16.333008"/>
<use xlink:href="#glyph-1-11" x="181.144531" y="16.333008"/>
</g>
<g clip-path="url(#clip-8)">
<path fill-rule="nonzero" fill="rgb(94.901961%, 94.901961%, 94.901961%)" fill-opacity="1" d="M 275.042969 21.753906 L 500.015625 21.753906 L 500.015625 3.988281 L 275.042969 3.988281 Z M 275.042969 21.753906 "/>
</g>
<g fill="rgb(10.196078%, 10.196078%, 10.196078%)" fill-opacity="1">
<use xlink:href="#glyph-1-12" x="377.527344" y="16.333008"/>
<use xlink:href="#glyph-1-13" x="383.527344" y="16.333008"/>
<use xlink:href="#glyph-1-14" x="385.527344" y="16.333008"/>
<use xlink:href="#glyph-1-15" x="387.527344" y="16.333008"/>
<use xlink:href="#glyph-1-4" x="392.527344" y="16.333008"/>
</g>
<path fill="none" stroke-width="1.066978" stroke-linecap="butt" stroke-linejoin="round" stroke="rgb(20%, 20%, 20%)" stroke-opacity="1" stroke-miterlimit="10" d="M 96.011719 308.824219 L 96.011719 306.082031 "/>
<path fill="none" stroke-width="1.066978" stroke-linecap="butt" stroke-linejoin="round" stroke="rgb(20%, 20%, 20%)" stroke-opacity="1" stroke-miterlimit="10" d="M 198.273438 308.824219 L 198.273438 306.082031 "/>
<g fill="rgb(30.196078%, 30.196078%, 30.196078%)" fill-opacity="1">
<use xlink:href="#glyph-1-16" x="70.011719" y="317.981445"/>
<use xlink:href="#glyph-1-17" x="76.011719" y="317.981445"/>
<use xlink:href="#glyph-1-4" x="79.011719" y="317.981445"/>
<use xlink:href="#glyph-1-18" x="84.011719" y="317.981445"/>
<use xlink:href="#glyph-1-19" x="87.011719" y="317.981445"/>
<use xlink:href="#glyph-1-1" x="93.011719" y="317.981445"/>
<use xlink:href="#glyph-1-17" x="98.011719" y="317.981445"/>
<use xlink:href="#glyph-1-20" x="101.011719" y="317.981445"/>
<use xlink:href="#glyph-1-21" x="108.011719" y="317.981445"/>
<use xlink:href="#glyph-1-22" x="113.011719" y="317.981445"/>
<use xlink:href="#glyph-1-23" x="118.011719" y="317.981445"/>
</g>
<g fill="rgb(30.196078%, 30.196078%, 30.196078%)" fill-opacity="1">
<use xlink:href="#glyph-1-16" x="170.773438" y="317.981445"/>
<use xlink:href="#glyph-1-21" x="176.773438" y="317.981445"/>
<use xlink:href="#glyph-1-3" x="181.773438" y="317.981445"/>
<use xlink:href="#glyph-1-2" x="185.773438" y="317.981445"/>
<use xlink:href="#glyph-1-18" x="187.773438" y="317.981445"/>
<use xlink:href="#glyph-1-19" x="190.773438" y="317.981445"/>
<use xlink:href="#glyph-1-1" x="196.773438" y="317.981445"/>
<use xlink:href="#glyph-1-17" x="201.773438" y="317.981445"/>
<use xlink:href="#glyph-1-20" x="204.773438" y="317.981445"/>
<use xlink:href="#glyph-1-21" x="211.773438" y="317.981445"/>
<use xlink:href="#glyph-1-22" x="216.773438" y="317.981445"/>
<use xlink:href="#glyph-1-23" x="221.773438" y="317.981445"/>
</g>
<path fill="none" stroke-width="1.066978" stroke-linecap="butt" stroke-linejoin="round" stroke="rgb(20%, 20%, 20%)" stroke-opacity="1" stroke-miterlimit="10" d="M 336.398438 308.824219 L 336.398438 306.082031 "/>
<path fill="none" stroke-width="1.066978" stroke-linecap="butt" stroke-linejoin="round" stroke="rgb(20%, 20%, 20%)" stroke-opacity="1" stroke-miterlimit="10" d="M 438.660156 308.824219 L 438.660156 306.082031 "/>
<g fill="rgb(30.196078%, 30.196078%, 30.196078%)" fill-opacity="1">
<use xlink:href="#glyph-1-16" x="310.398438" y="317.981445"/>
<use xlink:href="#glyph-1-17" x="316.398438" y="317.981445"/>
<use xlink:href="#glyph-1-4" x="319.398438" y="317.981445"/>
<use xlink:href="#glyph-1-18" x="324.398438" y="317.981445"/>
<use xlink:href="#glyph-1-19" x="327.398438" y="317.981445"/>
<use xlink:href="#glyph-1-1" x="333.398438" y="317.981445"/>
<use xlink:href="#glyph-1-17" x="338.398438" y="317.981445"/>
<use xlink:href="#glyph-1-20" x="341.398438" y="317.981445"/>
<use xlink:href="#glyph-1-21" x="348.398438" y="317.981445"/>
<use xlink:href="#glyph-1-22" x="353.398438" y="317.981445"/>
<use xlink:href="#glyph-1-23" x="358.398438" y="317.981445"/>
</g>
<g fill="rgb(30.196078%, 30.196078%, 30.196078%)" fill-opacity="1">
<use xlink:href="#glyph-1-16" x="411.160156" y="317.981445"/>
<use xlink:href="#glyph-1-21" x="417.160156" y="317.981445"/>
<use xlink:href="#glyph-1-3" x="422.160156" y="317.981445"/>
<use xlink:href="#glyph-1-2" x="426.160156" y="317.981445"/>
<use xlink:href="#glyph-1-18" x="428.160156" y="317.981445"/>
<use xlink:href="#glyph-1-19" x="431.160156" y="317.981445"/>
<use xlink:href="#glyph-1-1" x="437.160156" y="317.981445"/>
<use xlink:href="#glyph-1-17" x="442.160156" y="317.981445"/>
<use xlink:href="#glyph-1-20" x="445.160156" y="317.981445"/>
<use xlink:href="#glyph-1-21" x="452.160156" y="317.981445"/>
<use xlink:href="#glyph-1-22" x="457.160156" y="317.981445"/>
<use xlink:href="#glyph-1-23" x="462.160156" y="317.981445"/>
</g>
<g fill="rgb(30.196078%, 30.196078%, 30.196078%)" fill-opacity="1">
<use xlink:href="#glyph-1-24" x="265.109375" y="299.911133"/>
</g>
<g fill="rgb(30.196078%, 30.196078%, 30.196078%)" fill-opacity="1">
<use xlink:href="#glyph-1-7" x="265.109375" y="200.661133"/>
</g>
<g fill="rgb(30.196078%, 30.196078%, 30.196078%)" fill-opacity="1">
<use xlink:href="#glyph-1-25" x="265.109375" y="101.411133"/>
</g>
<path fill="none" stroke-width="1.066978" stroke-linecap="butt" stroke-linejoin="round" stroke="rgb(20%, 20%, 20%)" stroke-opacity="1" stroke-miterlimit="10" d="M 272.300781 296.445312 L 275.042969 296.445312 "/>
<path fill="none" stroke-width="1.066978" stroke-linecap="butt" stroke-linejoin="round" stroke="rgb(20%, 20%, 20%)" stroke-opacity="1" stroke-miterlimit="10" d="M 272.300781 197.195312 L 275.042969 197.195312 "/>
<path fill="none" stroke-width="1.066978" stroke-linecap="butt" stroke-linejoin="round" stroke="rgb(20%, 20%, 20%)" stroke-opacity="1" stroke-miterlimit="10" d="M 272.300781 97.945312 L 275.042969 97.945312 "/>
<g fill="rgb(30.196078%, 30.196078%, 30.196078%)" fill-opacity="1">
<use xlink:href="#glyph-1-24" x="17.726562" y="299.911133"/>
<use xlink:href="#glyph-1-26" x="22.726562" y="299.911133"/>
<use xlink:href="#glyph-1-27" x="24.726562" y="299.911133"/>
</g>
<g fill="rgb(30.196078%, 30.196078%, 30.196078%)" fill-opacity="1">
<use xlink:href="#glyph-1-24" x="17.726562" y="203.52832"/>
<use xlink:href="#glyph-1-26" x="22.726562" y="203.52832"/>
<use xlink:href="#glyph-1-7" x="24.726562" y="203.52832"/>
</g>
<g fill="rgb(30.196078%, 30.196078%, 30.196078%)" fill-opacity="1">
<use xlink:href="#glyph-1-24" x="17.726562" y="107.145508"/>
<use xlink:href="#glyph-1-26" x="22.726562" y="107.145508"/>
<use xlink:href="#glyph-1-28" x="24.726562" y="107.145508"/>
</g>
<path fill="none" stroke-width="1.066978" stroke-linecap="butt" stroke-linejoin="round" stroke="rgb(20%, 20%, 20%)" stroke-opacity="1" stroke-miterlimit="10" d="M 31.917969 296.445312 L 34.65625 296.445312 "/>
<path fill="none" stroke-width="1.066978" stroke-linecap="butt" stroke-linejoin="round" stroke="rgb(20%, 20%, 20%)" stroke-opacity="1" stroke-miterlimit="10" d="M 31.917969 200.0625 L 34.65625 200.0625 "/>
<path fill="none" stroke-width="1.066978" stroke-linecap="butt" stroke-linejoin="round" stroke="rgb(20%, 20%, 20%)" stroke-opacity="1" stroke-miterlimit="10" d="M 31.917969 103.679688 L 34.65625 103.679688 "/>
<g fill="rgb(0%, 0%, 0%)" fill-opacity="1">
<use xlink:href="#glyph-2-0" x="11.942383" y="230.917969"/>
<use xlink:href="#glyph-2-1" x="11.942383" y="228.917969"/>
<use xlink:href="#glyph-2-2" x="11.942383" y="222.917969"/>
<use xlink:href="#glyph-2-3" x="11.942383" y="219.917969"/>
<use xlink:href="#glyph-2-2" x="11.942383" y="212.917969"/>
<use xlink:href="#glyph-2-4" x="11.942383" y="209.917969"/>
<use xlink:href="#glyph-2-5" x="11.942383" y="206.917969"/>
<use xlink:href="#glyph-2-6" x="11.942383" y="202.917969"/>
<use xlink:href="#glyph-2-0" x="11.942383" y="196.917969"/>
<use xlink:href="#glyph-2-7" x="11.942383" y="194.917969"/>
<use xlink:href="#glyph-2-6" x="11.942383" y="188.917969"/>
<use xlink:href="#glyph-2-8" x="11.942383" y="182.917969"/>
<use xlink:href="#glyph-2-9" x="11.942383" y="176.917969"/>
<use xlink:href="#glyph-2-4" x="11.942383" y="172.917969"/>
<use xlink:href="#glyph-2-10" x="11.942383" y="169.917969"/>
<use xlink:href="#glyph-2-4" x="11.942383" y="163.917969"/>
<use xlink:href="#glyph-2-11" x="11.942383" y="160.917969"/>
<use xlink:href="#glyph-2-8" x="11.942383" y="154.917969"/>
<use xlink:href="#glyph-2-12" x="11.942383" y="148.917969"/>
<use xlink:href="#glyph-2-12" x="11.942383" y="145.917969"/>
<use xlink:href="#glyph-2-8" x="11.942383" y="142.917969"/>
<use xlink:href="#glyph-2-9" x="11.942383" y="136.917969"/>
<use xlink:href="#glyph-2-4" x="11.942383" y="132.917969"/>
<use xlink:href="#glyph-2-13" x="11.942383" y="129.917969"/>
<use xlink:href="#glyph-2-0" x="11.942383" y="120.917969"/>
<use xlink:href="#glyph-2-14" x="11.942383" y="118.917969"/>
<use xlink:href="#glyph-2-8" x="11.942383" y="112.917969"/>
<use xlink:href="#glyph-2-15" x="11.942383" y="106.917969"/>
<use xlink:href="#glyph-2-16" x="11.942383" y="100.917969"/>
</g>
</svg>
